<svg xmlns="http://www.w3.org/2000/svg" width="42.976" height="29.256" viewBox="0 0 42.976 29.256">
  <g id="Group_78" data-name="Group 78" transform="translate(-6130.053 -445.016)">
    <g id="Group_77" data-name="Group 77">
      <rect id="Rectangle_26" data-name="Rectangle 26" width="6.349" height="19.248" rx="0.522" transform="translate(6166.68 448.199)" fill="#231f20"/>
      <path id="Path_44" data-name="Path 44" d="M6146.9,446.106a2.068,2.068,0,0,0-.539.511l-1.941,2.7a2.075,2.075,0,0,0,.474,2.9l.006,0-1.668,2.32a2.076,2.076,0,0,0,.833,3.1l-1.87,2.6a2.07,2.07,0,0,0,.111,2.555h-9.647a2.6,2.6,0,0,0,0,5.208h19.79a2.089,2.089,0,0,1-2.09,2.089h-3.977a.726.726,0,0,0-.725.725v.63a2.825,2.825,0,0,0,2.825,2.825h7.248a3.135,3.135,0,0,0,2.357-1.069l.411-.468,4.81-4.951a1.043,1.043,0,0,0,.3-.728V450.387a3.135,3.135,0,0,0-1.716-2.795l-4.407-2.237a3.139,3.139,0,0,0-1.419-.339H6149.7A4.159,4.159,0,0,0,6146.9,446.106Z" fill="#231f20"/>
    </g>
  </g>
</svg>
